<?xml version="1.0" standalone="no"?>
<!DOCTYPE svg PUBLIC "-//W3C//DTD SVG 20010904//EN"
 "http://www.w3.org/TR/2001/REC-SVG-20010904/DTD/svg10.dtd">
<svg version="1.0" xmlns="http://www.w3.org/2000/svg"
 width="256.000000pt" height="256.000000pt" viewBox="0 0 256.000000 256.000000"
 preserveAspectRatio="xMidYMid meet">

<g transform="translate(0.000000,256.000000) scale(0.100000,-0.100000)"
fill="#000000" stroke="none">
<path d="M816 2268 c-21 -29 -20 -40 4 -71 15 -19 20 -40 20 -91 l0 -66 -117
0 c-188 0 -213 -26 -213 -214 l0 -115 -122 -3 c-115 -3 -123 -4 -123 -23 0
-19 8 -20 123 -23 l122 -3 0 -179 0 -180 -125 0 c-118 0 -125 -1 -125 -20 0
-18 8 -20 123 -22 l122 -3 3 -177 2 -178 -69 0 c-49 0 -72 4 -81 15 -16 20
-64 19 -84 -1 -24 -23 -20 -70 6 -88 30 -21 50 -20 81 4 19 15 40 20 86 20
l61 0 0 -117 c0 -188 26 -213 215 -213 l115 0 0 -65 c0 -52 -5 -72 -22 -96
-21 -28 -21 -32 -7 -57 20 -37 80 -43 103 -10 21 30 20 51 -4 73 -16 15 -20
31 -20 87 l0 68 180 0 180 0 0 -126 c0 -124 0 -125 23 -122 21 3 22 7 25 125
l3 123 174 0 174 0 3 -123 c3 -117 4 -122 25 -125 22 -3 22 -1 25 120 l3 123
125 5 c129 5 167 17 186 58 5 9 11 73 14 142 l5 125 120 3 c124 3 148 10 125
37 -10 12 -36 15 -131 15 l-119 0 2 177 3 178 125 5 c102 4 125 8 125 20 0 12
-23 16 -125 20 l-125 5 -3 178 -2 177 65 0 c52 0 72 -5 95 -22 25 -18 33 -20
55 -10 38 17 52 55 32 86 -24 36 -54 42 -88 17 -22 -16 -43 -21 -94 -21 l-65
0 0 125 0 125 -34 38 -34 37 -129 5 -128 5 -3 123 c-2 111 -4 122 -21 122 -27
0 -31 -18 -31 -141 l0 -109 -175 0 -174 0 -3 123 c-3 118 -4 122 -25 125 -23
3 -23 2 -23 -122 l0 -126 -180 0 -180 0 0 65 c0 52 4 69 20 85 40 40 12 100
-45 100 -24 0 -39 -7 -49 -22z m1134 -288 c11 -6 24 -27 30 -48 14 -53 14
-1268 -1 -1311 -6 -17 -19 -36 -29 -41 -12 -6 -269 -10 -684 -10 l-665 0 -20
26 c-21 26 -21 34 -21 686 l0 659 25 24 24 25 661 0 c427 0 668 -4 680 -10z"/>
<path d="M1136 1830 c-40 -13 -64 -38 -78 -82 -11 -36 -13 -38 -52 -38 -111
-1 -213 -111 -191 -209 5 -22 0 -31 -26 -50 -60 -44 -70 -112 -26 -174 19 -28
19 -28 -1 -50 -33 -37 -45 -69 -45 -122 0 -73 35 -131 101 -164 17 -9 22 -20
22 -49 0 -80 62 -137 150 -137 30 -1 76 -9 102 -19 58 -22 105 -16 148 21 28
23 32 24 48 10 24 -22 86 -47 115 -47 12 0 40 9 62 20 27 14 49 18 75 14 60
-10 126 25 150 78 11 24 20 58 20 76 0 20 5 32 13 32 20 0 78 61 93 97 26 62
6 164 -39 201 -14 12 -13 17 9 49 13 20 24 50 24 67 0 36 -30 90 -59 106 -17
8 -21 21 -21 57 0 106 -73 183 -181 191 -54 4 -59 6 -59 27 0 33 -44 81 -85
95 -39 13 -94 1 -115 -25 -11 -13 -16 -12 -39 4 -33 24 -78 32 -115 21z m85
-59 l24 -19 3 -360 3 -360 -41 14 c-77 27 -155 -17 -174 -97 -8 -38 20 -62 40
-34 8 10 14 27 14 36 0 23 46 59 76 59 12 0 36 -11 51 -24 25 -22 28 -30 28
-91 0 -63 -2 -68 -33 -96 -42 -38 -89 -39 -131 -3 -24 20 -34 23 -50 15 -37
-20 -81 -13 -113 19 -28 28 -30 35 -26 81 l5 50 -38 16 c-48 19 -86 62 -95
108 -8 46 25 113 71 142 39 26 38 44 -5 60 -66 25 -59 109 11 137 43 18 43 17
29 66 -31 109 89 207 191 156 49 -24 63 -21 55 12 -19 75 -19 80 7 106 31 31
66 33 98 7z m193 -2 c29 -23 35 -65 14 -99 -10 -15 -10 -22 0 -32 9 -9 19 -8
47 5 71 34 149 14 185 -46 21 -33 26 -102 11 -126 -13 -20 -2 -41 21 -41 10 0
30 -11 44 -25 38 -38 30 -83 -18 -114 -46 -29 -48 -45 -8 -66 66 -34 90 -126
50 -190 -12 -19 -40 -42 -66 -55 -45 -20 -46 -22 -39 -57 15 -84 -65 -150
-136 -112 -17 9 -28 6 -60 -17 -48 -33 -102 -29 -136 11 -23 26 -23 30 -23
300 l0 274 28 -15 c37 -19 66 -18 111 6 70 35 101 157 34 132 -7 -2 -13 -14
-13 -27 0 -12 -12 -34 -26 -49 -34 -34 -77 -34 -109 -1 -24 23 -25 28 -25 174
l0 150 26 20 c15 12 34 21 44 21 10 0 29 -9 44 -21z"/>
<path d="M1043 1524 c-3 -8 -1 -20 6 -27 6 -6 11 -25 11 -42 0 -41 -30 -70
-65 -61 -14 3 -36 9 -50 12 -21 5 -25 3 -25 -15 0 -25 50 -51 98 -51 30 0 62
-26 62 -51 0 -21 20 -38 36 -32 22 8 16 59 -10 90 -21 25 -22 31 -10 48 19 25
18 95 -2 123 -18 26 -42 29 -51 6z"/>
<path d="M1383 1145 c-45 -32 -19 -67 31 -41 49 25 104 -10 92 -59 -3 -14 -9
-36 -12 -50 -5 -21 -3 -25 15 -25 30 0 55 53 47 102 -6 37 -5 38 23 38 17 0
33 -4 36 -10 3 -5 15 -10 26 -10 15 0 20 6 17 22 -4 31 -45 50 -93 43 -48 -6
-46 -6 -110 1 -37 4 -56 1 -72 -11z"/>
</g>
</svg>
